{"title":"Bring It On (2000)","uid":4952641,"size":720150874,"categoryP":"video","categoryS":"movies","magnet":"?xt=urn:btih:88ba7458244480056c6ed115fcd29e1133349bef&amp;dn=Bring+It+On+%282000%29&amp;tr=udp%3A%2F%2Ftracker.openbittorrent.com%3A80&amp;tr=udp%3A%2F%2Fopen.demonii.com%3A1337&amp;tr=udp%3A%2F%2Ftracker.coppersurfer.tk%3A6969&amp;tr=udp%3A%2F%2Fexodus.desync.com%3A6969","seeders":1,"leechers":0,"uploader":"HolyRoses","files":-1,"time":1244963319,"description":"It's good quality.  Straight PAL DVD transfer.\n\nSnapshots: &lt;a href=&quot;\nhttp://bayimg.com/image/habfpaaca.jpg&quot; rel=&quot;nofollow&quot; target=&quot;_NEW&quot;&gt;\nhttp://bayimg.com/image/habfpaaca.jpg&lt;/a&gt;\n\nPoster: &lt;a href=&quot;\nhttp://bayimg.com/image/fabfpaaca.jpg&quot; rel=&quot;nofollow&quot; target=&quot;_NEW&quot;&gt;\nhttp://bayimg.com/image/fabfpaaca.jpg&lt;/a&gt;\n\nIcon: &lt;a href=&quot;\nhttp://bayimg.com/image/gabfaaaca.jpg&quot; rel=&quot;nofollow&quot; target=&quot;_NEW&quot;&gt;\nhttp://bayimg.com/image/gabfaaaca.jpg&lt;/a&gt;\n\n-HR\n\n---------------------------------------------------\n\n\nGeneral\nComplete name                    : Bring It On.avi\nFormat                           : AVI\nFormat/Info                      : Audio Video Interleave\nFile size                        : 687 MiB\nDuration                         : 1h 34mn\nOverall bit rate                 : 1 018 Kbps\nWriting library                  : VirtualDub build 23350/release\n\nVideo\nFormat                           : MPEG-4 Visual\nFormat settings, BVOP            : Yes\nFormat settings, QPel            : No\nFormat settings, GMC             : No warppoints\nFormat settings, Matrix          : Default\nMuxing mode                      : Packed bitstream\nCodec ID                         : DX50\nCodec ID/Hint                    : DivX 5\nDuration                         : 1h 34mn\nBit rate                         : 849 Kbps\nWidth                            : 640 pixels\nHeight                           : 360 pixels\nDisplay aspect ratio             : 16/9\nFrame rate                       : 25.000 fps\nResolution                       : 24 bits\nColorimetry                      : 4:2:0\nScan type                        : Progressive\nBits/(Pixel*Frame)               : 0.147\nStream size                      : 572 MiB (83%)\nWriting library                  : DivX 5.2.1 Beta (UTC 2004-09-08)\n\nAudio\nFormat                           : MPEG Audio\nFormat version                   : Version 1\nFormat profile                   : Layer 3\nCodec ID                         : 55\nCodec ID/Hint                    : MP3\nDuration                         : 1h 34mn\nBit rate mode                    : Constant\nBit rate                         : 160 Kbps\nChannel(s)                       : 2 channels\nSampling rate                    : 44.1 KHz\nResolution                       : 16 bits\nStream size                      : 108 MiB (16%)\nAlignment                        : Split accross interleaves\nInterleave, duration             : 40 ms (1.00 video frame)\nInterleave, preload duration     : 500 ms\nWriting library                  : LAME3.92 \nEncoding settings                : CBR\n\n\nFound another copy of this movie here: &lt;a href=&quot;\nhttp://thepiratebay.se/torrent/3672466/&quot; rel=&quot;nofollow&quot; target=&quot;_NEW&quot;&gt;\nhttp://thepiratebay.se/torrent/3672466/&lt;/a&gt;\n\nThe differences are this version is PAL DVD transfer and uncropped, while the link above is an NTSC cropped transfer.  By cropped I mean the matte has been removed.  This is a larger image also, they both appear to have the same viewing data, just this one is larger in pixels.\n\n\n","torrent":{"xt":"urn:btih:88ba7458244480056c6ed115fcd29e1133349bef","amp;dn":"Bring+It+On+%282000%29","amp;tr":["udp%3A%2F%2Ftracker.openbittorrent.com%3A80","udp%3A%2F%2Fopen.demonii.com%3A1337","udp%3A%2F%2Ftracker.coppersurfer.tk%3A6969","udp%3A%2F%2Fexodus.desync.com%3A6969"],"infoHash":"88ba7458244480056c6ed115fcd29e1133349bef","infoHashBuffer":{"type":"Buffer","data":[136,186,116,88,36,68,128,5,108,110,209,21,252,210,158,17,51,52,155,239]},"announce":[],"urlList":[]}}